<svg width="323" height="99" viewBox="0 0 323 99" fill="none" xmlns="http://www.w3.org/2000/svg">
<path d="M0 70.8696V26.2713H21.0856V30.0637H4.39916V44.9298H20.1754V48.7222H4.39916V70.7179H0V70.8696Z" fill="#CD9148"/>
<path d="M28.8221 70.8696V26.2713H33.2213V67.0773H50.5145V70.8696H28.8221Z" fill="#CD9148"/>
<path d="M107.704 70.8696V26.2713H114.53C119.687 26.2713 123.935 27.4849 127.121 30.0637C130.306 32.6425 131.975 35.9798 131.975 40.0756C131.975 43.7162 130.761 46.7501 128.182 49.1773C125.755 51.6044 122.418 53.1213 118.17 53.7281L132.43 71.0213H126.817L111.799 52.6662V71.0213H107.704V70.8696ZM112.103 49.9357H114.53C118.626 49.9357 121.963 49.0256 124.238 47.2052C126.514 45.3849 127.727 42.9578 127.727 39.9239C127.727 36.89 126.514 34.4628 124.238 32.6425C121.963 30.8222 118.626 29.912 114.53 29.912H112.103V49.9357Z" fill="#CD9148"/>
<path d="M141.076 70.8696V26.2713H145.476V70.8696H141.076Z" fill="#CD9148"/>
<path d="M156.548 70.8696V26.2713H160.947V67.0773H178.241V70.8696H156.548Z" fill="#CD9148"/>
<path d="M185.674 70.8698V26.2715H206.759V30.0639H190.073V44.93H205.849V48.7224H190.073V66.9257H206.759V70.7181H185.674V70.8698ZM198.113 21.2656H194.624L189.466 12.3156H194.776L198.113 21.2656Z" fill="#CD9148"/>
<path d="M253.33 32.0357L250.448 35.0696C250.296 34.9179 250.144 34.7662 249.841 34.4628C249.538 34.1594 248.931 33.7043 248.021 33.0975C247.11 32.4908 246.049 31.884 245.138 31.2772C244.077 30.8221 242.863 30.367 241.194 29.9119C239.526 29.4569 238.009 29.3052 236.188 29.3052C230.879 29.3052 226.328 31.1255 222.688 34.9179C219.047 38.7102 217.227 43.2611 217.227 48.7221C217.227 54.1831 219.047 58.8857 222.688 62.5263C226.328 66.167 230.879 68.139 236.34 68.139C241.043 68.139 244.987 66.9255 248.172 64.4984C251.358 62.0712 253.482 58.734 254.695 54.3348H234.368V50.5424H259.853C259.246 56.9136 256.819 62.0712 252.571 66.0153C248.324 69.9594 243.015 71.9314 236.34 71.9314C229.666 71.9314 224.053 69.656 219.654 65.2568C215.103 60.706 212.979 55.245 212.979 48.7221C212.979 42.1992 215.255 36.7382 219.654 32.1874C224.053 27.6365 229.666 25.5128 236.34 25.5128C238.464 25.5128 240.436 25.8162 242.408 26.2713C244.38 26.7263 245.897 27.3331 247.262 27.9399C248.476 28.5467 249.689 29.3052 250.751 29.9119C251.813 30.5187 252.42 31.1255 252.875 31.5806L253.33 32.0357Z" fill="#CD9148"/>
<path d="M269.106 70.8696V26.2713H290.191V30.0637H273.505V44.9298H289.281V48.7222H273.505V66.9255H290.191V70.7179H269.106V70.8696Z" fill="#CD9148"/>
<path d="M295.805 64.043L298.99 61.3125C299.142 61.4642 299.142 61.7676 299.446 62.071C299.597 62.3744 300.052 62.9812 300.659 63.7396C301.266 64.4981 302.024 65.2566 302.783 65.7117C303.541 66.3185 304.603 66.7735 305.817 67.2286C307.03 67.6837 308.396 67.9871 309.912 67.9871C312.491 67.9871 314.615 67.2286 316.284 65.8634C317.801 64.3464 318.559 62.3744 318.559 59.7956C318.559 58.582 318.407 57.3685 317.952 56.4583C317.497 55.5481 316.739 54.638 315.677 53.7278C314.615 52.9693 313.705 52.2108 312.795 51.7557C311.885 51.3007 310.671 50.6939 308.851 49.7837C307.637 49.1769 306.727 48.7219 306.12 48.4185C305.513 48.1151 304.603 47.66 303.541 46.9015C302.479 46.143 301.569 45.5363 300.962 45.0812C300.356 44.6261 299.749 43.7159 298.99 42.9575C298.232 42.0473 297.777 41.1371 297.473 40.0753C297.17 39.0134 297.018 37.9515 297.018 36.738C297.018 33.4007 298.232 30.6702 300.507 28.5464C302.783 26.4227 305.665 25.3609 309.154 25.3609C310.671 25.3609 312.188 25.5125 313.705 25.9676C315.07 26.4227 316.284 26.8778 317.194 27.4846C318.104 28.0914 318.862 28.6981 319.621 29.1532C320.379 29.6083 320.835 30.2151 321.138 30.6702L321.593 31.2769L318.559 33.8558C318.407 33.7041 318.407 33.5524 318.256 33.4007C318.104 33.249 317.649 32.7939 317.042 32.3388C316.435 31.732 315.829 31.2769 315.07 30.9736C314.463 30.5185 313.553 30.2151 312.491 29.9117C311.429 29.6083 310.368 29.4566 309.306 29.4566C307.03 29.4566 305.21 30.0634 303.845 31.4286C302.328 32.6422 301.721 34.4625 301.721 36.738C301.721 37.9515 301.873 39.1651 302.328 40.0753C302.783 40.9854 303.541 41.8956 304.603 42.8058C305.665 43.5642 306.575 44.171 307.334 44.6261C308.092 45.0812 309.306 45.688 310.823 46.4464C314.918 48.4185 318.104 50.3905 319.924 52.3625C321.896 54.3346 322.807 56.9134 322.807 60.099C322.807 63.5879 321.745 66.4702 319.469 68.7456C317.194 71.021 314.008 72.2346 309.912 72.2346C308.092 72.2346 306.272 71.9312 304.755 71.4761C303.086 70.8693 301.721 70.2625 300.659 69.5041C299.597 68.7456 298.687 67.9871 297.929 67.2286C297.17 66.4702 296.563 65.8634 296.26 65.2566L295.805 64.043Z" fill="#CD9148"/>
<path d="M59.616 25.3605C68.2626 36.1308 74.1786 69.6554 74.1786 69.6554" stroke="#CD9148" stroke-width="3.0339" stroke-miterlimit="10"/>
<path d="M74.3301 70.7181C71.903 63.4367 67.2005 51.4529 53.548 52.363" stroke="#CD9148" stroke-width="3.0339" stroke-miterlimit="10"/>
<path d="M59.4645 24.9059C47.4806 30.0635 47.0255 13.8322 47.0255 13.8322C47.0255 13.8322 63.2569 12.4669 59.4645 24.9059Z" stroke="#CD9148" stroke-width="3.0339" stroke-miterlimit="10"/>
<path d="M75.9985 13.8328C67.2002 30.6709 74.3298 70.5667 74.3298 70.5667" stroke="#CD9148" stroke-width="3.0339" stroke-miterlimit="10"/>
<path d="M75.2402 14.5907C87.8308 18.0797 86.0105 2 86.0105 2C86.0105 2 69.9309 2.60678 75.2402 14.5907Z" stroke="#CD9148" stroke-width="3.0339" stroke-miterlimit="10"/>
<path d="M81.1567 69.6558C81.1567 69.6558 77.3367 59.9862 89.6057 48.8015" stroke="#CD9148" stroke-width="3.0339" stroke-miterlimit="10"/>
<path d="M81.1563 69.6563C81.1563 69.6563 72.5098 51.7564 86.9208 32.7945" stroke="#CD9148" stroke-width="3.0339" stroke-miterlimit="10"/>
<path d="M56.5822 37.4965C56.5822 37.4965 71.2965 50.8456 74.1787 69.6558" stroke="#CD9148" stroke-width="3.0339" stroke-miterlimit="10"/>
<path d="M89.3484 48.4183C86.0111 37.1929 100.422 38.5581 100.422 38.5581C100.422 38.5581 100.119 52.9691 89.3484 48.4183Z" stroke="#CD9148" stroke-width="3.0339" stroke-miterlimit="10"/>
<path fill-rule="evenodd" clip-rule="evenodd" d="M95.8871 38.6556C94.7635 36.2601 93.1903 34.0577 91.1677 32.0351C86.6169 27.4842 81.0041 25.3605 74.3296 25.3605C67.655 25.3605 62.0423 27.4842 57.4914 32.0351C52.9406 36.5859 50.6652 42.0469 50.6652 48.5698C50.6652 55.0927 52.9406 60.5537 57.4914 65.1045C62.0423 69.5037 67.655 71.7791 74.3296 71.7791C81.0041 71.7791 86.6169 69.6554 91.1677 65.1045C95.7185 60.5537 97.994 55.0927 97.994 48.5698C97.994 47.9371 97.9726 47.3143 97.9297 46.7014C96.9403 48.0599 95.5472 49.0779 93.5862 49.2162C93.4471 54.3911 91.6239 58.7323 87.9821 62.374C84.3414 66.1664 79.7906 67.9867 74.3296 67.9867C69.0202 67.9867 64.4694 66.1664 60.677 62.374C56.8847 58.5817 55.0643 54.0308 55.0643 48.5698C55.0643 43.1088 56.8847 38.5579 60.677 34.7656C64.4694 30.9732 69.0202 29.1529 74.3296 29.1529C79.6389 29.1529 84.1897 30.9732 87.9821 34.7656C89.5903 36.3737 90.8438 38.1183 91.7544 40.0108C93.0119 39.2714 94.5029 38.8688 95.8871 38.6556Z" fill="#CD9148"/>
<path d="M0 92.0105L71.6485 92.0106" stroke="#225149" stroke-width="1.51695" stroke-miterlimit="10"/>
<path d="M251.084 92.0105L322.733 92.0106" stroke="#225149" stroke-width="1.51695" stroke-miterlimit="10"/>
<path d="M86.0747 92.3241H84.9047L83.8036 98.6097H82.1978L85.0883 82.1387H87.4052C89.2404 82.1387 90.6168 82.5593 91.5344 83.4004C92.4673 84.2416 92.9338 85.358 92.9338 86.7497C92.9338 88.5084 92.2915 89.8772 91.0068 90.856C89.7222 91.8348 88.0781 92.3241 86.0747 92.3241ZM85.1571 90.9019H86.0747C87.6652 90.9019 88.9346 90.5654 89.8827 89.8925C90.8309 89.2043 91.305 88.1567 91.305 86.7497C91.305 85.8015 90.9762 85.0368 90.3186 84.4557C89.661 83.8592 88.6746 83.561 87.3593 83.561H86.4417L85.1571 90.9019Z" fill="#214741"/>
<path d="M100.411 88.4702L100.158 89.9154H99.6766C99.1107 89.9154 98.5984 90.0072 98.1396 90.1907C97.6808 90.3742 97.3214 90.596 97.0614 90.856C96.8167 91.116 96.6102 91.3836 96.442 91.6589C96.2891 91.9189 96.182 92.1406 96.1208 92.3241L96.052 92.5994L94.9968 98.6097H93.5057L95.2721 88.4702L96.2585 90.0301C96.2891 89.9843 96.3349 89.9307 96.3961 89.8696C96.4573 89.7931 96.5873 89.6707 96.7861 89.5025C97.0002 89.319 97.2296 89.1584 97.4743 89.0208C97.7343 88.8831 98.0707 88.7608 98.4837 88.6537C98.8966 88.5314 99.3325 88.4702 99.7913 88.4702H100.411Z" fill="#214741"/>
<path d="M105.476 98.8391C104.054 98.8391 102.868 98.4186 101.92 97.5774C100.972 96.721 100.498 95.5663 100.498 94.1135C100.498 92.5535 101.033 91.223 102.104 90.1219C103.19 89.0208 104.535 88.4702 106.141 88.4702C107.915 88.4702 109.276 89.0896 110.225 90.3284L112.129 88.4702L110.362 98.6097H108.894L109.078 97.5774C108.038 98.4186 106.837 98.8391 105.476 98.8391ZM106.21 89.8696C105.048 89.8696 104.054 90.2595 103.228 91.0395C102.417 91.8195 102.012 92.8441 102.012 94.1135C102.012 95.0922 102.341 95.8952 102.998 96.5222C103.656 97.1339 104.505 97.4398 105.545 97.4398C106.707 97.4398 107.693 97.0498 108.504 96.2698C109.33 95.4899 109.743 94.4652 109.743 93.1959C109.743 92.2171 109.414 91.4218 108.756 90.8101C108.099 90.1831 107.25 89.8696 106.21 89.8696Z" fill="#214741"/>
<path d="M114.049 98.6097L115.792 88.6996H117.283L115.54 98.6097H114.049ZM116.113 86.8644L116.618 83.951H118.109L117.604 86.8644H116.113Z" fill="#214741"/>
<path d="M126.106 88.4702L125.854 89.9154H125.372C124.806 89.9154 124.294 90.0072 123.835 90.1907C123.376 90.3742 123.017 90.596 122.757 90.856C122.512 91.116 122.306 91.3836 122.138 91.6589C121.985 91.9189 121.878 92.1406 121.816 92.3241L121.748 92.5994L120.692 98.6097H119.201L120.968 88.4702L121.954 90.0301C121.985 89.9843 122.031 89.9307 122.092 89.8696C122.153 89.7931 122.283 89.6707 122.482 89.5025C122.696 89.319 122.925 89.1584 123.17 89.0208C123.43 88.8831 123.766 88.7608 124.179 88.6537C124.592 88.5314 125.028 88.4702 125.487 88.4702H126.106Z" fill="#214741"/>
<path d="M126.527 98.6097L128.27 88.6996H129.761L128.018 98.6097H126.527ZM128.591 86.8644L129.096 83.951H130.587L130.083 86.8644H128.591Z" fill="#214741"/>
<path d="M142.553 93.127L133.423 94.8017C133.606 95.5816 134.004 96.2163 134.616 96.7057C135.243 97.1951 136.015 97.4398 136.933 97.4398C137.346 97.4398 137.743 97.3863 138.126 97.2792C138.508 97.1721 138.821 97.0422 139.066 96.8892C139.311 96.7363 139.533 96.5834 139.731 96.4304C139.93 96.2622 140.075 96.1246 140.167 96.0175L140.282 95.8569L141.452 96.7516C141.406 96.8128 141.345 96.8892 141.268 96.981C141.192 97.0727 141.016 97.241 140.741 97.4857C140.465 97.7151 140.167 97.9215 139.846 98.105C139.54 98.2886 139.127 98.4568 138.607 98.6097C138.103 98.7627 137.575 98.8391 137.024 98.8391C135.526 98.8391 134.279 98.4033 133.285 97.5315C132.291 96.6598 131.794 95.4516 131.794 93.907C131.794 92.4388 132.314 91.1695 133.354 90.099C134.409 89.0131 135.709 88.4702 137.254 88.4702C138.691 88.4702 139.892 88.8908 140.855 89.7319C141.834 90.573 142.4 91.7048 142.553 93.127ZM137.323 89.8696C136.237 89.8696 135.327 90.206 134.593 90.8789C133.859 91.5365 133.438 92.4006 133.331 93.4711L140.855 92.0718C140.825 91.9495 140.748 91.7965 140.626 91.613C140.519 91.4295 140.335 91.1924 140.075 90.9019C139.831 90.6113 139.464 90.3666 138.974 90.1678C138.485 89.969 137.934 89.8696 137.323 89.8696Z" fill="#214741"/>
<path d="M142.901 97.371L143.934 96.1551C144.025 96.2469 144.148 96.3692 144.301 96.5222C144.469 96.6598 144.813 96.851 145.333 97.0957C145.853 97.3251 146.388 97.4398 146.939 97.4398C147.505 97.4398 147.956 97.3021 148.292 97.0269C148.629 96.7363 148.797 96.3463 148.797 95.8569C148.797 95.4593 148.644 95.1381 148.338 94.8934C148.032 94.6334 147.665 94.427 147.237 94.2741C146.809 94.1058 146.38 93.9299 145.952 93.7464C145.524 93.5629 145.157 93.2723 144.851 92.8747C144.545 92.4771 144.392 91.98 144.392 91.3836C144.392 90.5272 144.706 89.8313 145.333 89.2961C145.96 88.7455 146.74 88.4702 147.673 88.4702C148.285 88.4702 148.866 88.562 149.416 88.7455C149.967 88.929 150.372 89.1125 150.632 89.2961L150.999 89.5484L150.196 90.7413C149.432 90.1601 148.583 89.8696 147.65 89.8696C147.16 89.8696 146.748 89.9995 146.411 90.2595C146.09 90.5195 145.929 90.8713 145.929 91.3148C145.929 91.6818 146.075 91.98 146.365 92.2094C146.671 92.4388 147.038 92.63 147.466 92.7829C147.91 92.9206 148.346 93.0888 148.774 93.2876C149.202 93.4864 149.562 93.8 149.852 94.2282C150.158 94.6564 150.311 95.1993 150.311 95.8569C150.311 96.7439 149.997 97.4627 149.37 98.0133C148.743 98.5638 147.91 98.8391 146.87 98.8391C146.136 98.8391 145.432 98.7168 144.759 98.4721C144.102 98.2274 143.628 97.9827 143.337 97.738L142.901 97.371Z" fill="#214741"/>
<path d="M168.387 98.8391L167.469 97.4168C167.377 97.5239 167.24 97.6615 167.056 97.8298C166.873 97.9827 166.498 98.1892 165.932 98.4491C165.382 98.7091 164.823 98.8391 164.258 98.8391C163.187 98.8391 162.338 98.5256 161.711 97.8986C161.084 97.2563 160.771 96.3922 160.771 95.3064C160.771 94.9546 160.809 94.5646 160.885 94.1364L161.826 88.6996H163.317L162.331 94.2282C162.162 95.1458 162.254 95.9028 162.606 96.4992C162.958 97.0957 163.623 97.3939 164.602 97.3939C165.106 97.3939 165.596 97.2639 166.07 97.0039C166.544 96.7286 166.888 96.4534 167.102 96.1781L167.423 95.7881L168.662 88.6996H170.153L168.387 98.8391Z" fill="#214741"/>
<path d="M178.998 88.4702L178.746 89.9154H178.264C177.698 89.9154 177.186 90.0072 176.727 90.1907C176.269 90.3742 175.909 90.596 175.649 90.856C175.404 91.116 175.198 91.3836 175.03 91.6589C174.877 91.9189 174.77 92.1406 174.709 92.3241L174.64 92.5994L173.585 98.6097H172.093L173.86 88.4702L174.846 90.0301C174.877 89.9843 174.923 89.9307 174.984 89.8696C175.045 89.7931 175.175 89.6707 175.374 89.5025C175.588 89.319 175.817 89.1584 176.062 89.0208C176.322 88.8831 176.658 88.7608 177.071 88.6537C177.484 88.5314 177.92 88.4702 178.379 88.4702H178.998Z" fill="#214741"/>
<path d="M186.026 88.4702C187.448 88.4702 188.633 88.8984 189.581 89.7549C190.53 90.596 191.004 91.743 191.004 93.1959C191.004 94.7558 190.461 96.0863 189.375 97.1874C188.304 98.2886 186.966 98.8391 185.36 98.8391C183.586 98.8391 182.225 98.2197 181.277 96.981L179.373 98.8391L182.309 82.1387H183.778L182.447 89.7319C183.456 88.8908 184.649 88.4702 186.026 88.4702ZM185.292 97.4398C186.454 97.4398 187.44 97.0498 188.251 96.2698C189.077 95.4899 189.49 94.4652 189.49 93.1959C189.49 92.2171 189.161 91.4218 188.503 90.8101C187.846 90.1831 186.997 89.8696 185.957 89.8696C184.795 89.8696 183.801 90.2595 182.975 91.0395C182.164 91.8195 181.759 92.8441 181.759 94.1135C181.759 95.0922 182.088 95.8952 182.745 96.5222C183.403 97.1339 184.252 97.4398 185.292 97.4398Z" fill="#214741"/>
<path d="M198.065 98.8391C196.643 98.8391 195.458 98.4186 194.509 97.5774C193.561 96.721 193.087 95.5663 193.087 94.1135C193.087 92.5535 193.622 91.223 194.693 90.1219C195.779 89.0208 197.125 88.4702 198.73 88.4702C200.504 88.4702 201.866 89.0896 202.814 90.3284L204.718 88.4702L202.951 98.6097H201.483L201.667 97.5774C200.627 98.4186 199.426 98.8391 198.065 98.8391ZM198.799 89.8696C197.637 89.8696 196.643 90.2595 195.817 91.0395C195.007 91.8195 194.601 92.8441 194.601 94.1135C194.601 95.0922 194.93 95.8952 195.588 96.5222C196.245 97.1339 197.094 97.4398 198.134 97.4398C199.296 97.4398 200.283 97.0498 201.093 96.2698C201.919 95.4899 202.332 94.4652 202.332 93.1959C202.332 92.2171 202.003 91.4218 201.346 90.8101C200.688 90.1831 199.839 89.8696 198.799 89.8696Z" fill="#214741"/>
<path d="M206.638 98.6097L208.381 88.6996H209.873L208.129 98.6097H206.638ZM208.703 86.8644L209.207 83.951H210.698L210.194 86.8644H208.703Z" fill="#214741"/>
<path d="M214.475 89.8925C214.566 89.7854 214.704 89.6554 214.887 89.5025C215.071 89.3343 215.438 89.1202 215.989 88.8602C216.554 88.6002 217.12 88.4702 217.686 88.4702C218.757 88.4702 219.605 88.7914 220.232 89.4337C220.86 90.0607 221.173 90.9172 221.173 92.003C221.173 92.3547 221.135 92.7447 221.058 93.1729L220.118 98.6097H218.627L219.613 93.0812C219.781 92.1636 219.69 91.4065 219.338 90.8101C218.986 90.2137 218.321 89.9154 217.342 89.9154C216.837 89.9154 216.348 90.0531 215.874 90.3284C215.4 90.5883 215.056 90.856 214.842 91.1313L214.52 91.5212L213.282 98.6097H211.791L213.557 88.4702L214.475 89.8925Z" fill="#214741"/>
<path d="M234.537 93.127L225.407 94.8017C225.591 95.5816 225.988 96.2163 226.6 96.7057C227.227 97.1951 227.999 97.4398 228.917 97.4398C229.33 97.4398 229.728 97.3863 230.11 97.2792C230.492 97.1721 230.806 97.0422 231.051 96.8892C231.295 96.7363 231.517 96.5834 231.716 96.4304C231.915 96.2622 232.06 96.1246 232.152 96.0175L232.266 95.8569L233.436 96.7516C233.39 96.8128 233.329 96.8892 233.253 96.981C233.176 97.0727 233 97.241 232.725 97.4857C232.45 97.7151 232.152 97.9215 231.83 98.105C231.525 98.2886 231.112 98.4568 230.592 98.6097C230.087 98.7627 229.559 98.8391 229.009 98.8391C227.51 98.8391 226.264 98.4033 225.27 97.5315C224.276 96.6598 223.779 95.4516 223.779 93.907C223.779 92.4388 224.299 91.1695 225.338 90.099C226.394 89.0131 227.694 88.4702 229.238 88.4702C230.676 88.4702 231.876 88.8908 232.84 89.7319C233.819 90.573 234.385 91.7048 234.537 93.127ZM229.307 89.8696C228.221 89.8696 227.311 90.206 226.577 90.8789C225.843 91.5365 225.423 92.4006 225.316 93.4711L232.84 92.0718C232.809 91.9495 232.733 91.7965 232.61 91.613C232.503 91.4295 232.32 91.1924 232.06 90.9019C231.815 90.6113 231.448 90.3666 230.959 90.1678C230.469 89.969 229.919 89.8696 229.307 89.8696Z" fill="#214741"/>
<path d="M234.886 97.371L235.918 96.1551C236.01 96.2469 236.132 96.3692 236.285 96.5222C236.453 96.6598 236.797 96.851 237.317 97.0957C237.837 97.3251 238.373 97.4398 238.923 97.4398C239.489 97.4398 239.94 97.3021 240.277 97.0269C240.613 96.7363 240.781 96.3463 240.781 95.8569C240.781 95.4593 240.628 95.1381 240.322 94.8934C240.017 94.6334 239.65 94.427 239.221 94.2741C238.793 94.1058 238.365 93.9299 237.937 93.7464C237.508 93.5629 237.141 93.2723 236.836 92.8747C236.53 92.4771 236.377 91.98 236.377 91.3836C236.377 90.5272 236.69 89.8313 237.317 89.2961C237.944 88.7455 238.724 88.4702 239.657 88.4702C240.269 88.4702 240.85 88.562 241.401 88.7455C241.951 88.929 242.356 89.1125 242.616 89.2961L242.984 89.5484L242.181 90.7413C241.416 90.1601 240.567 89.8696 239.634 89.8696C239.145 89.8696 238.732 89.9995 238.395 90.2595C238.074 90.5195 237.914 90.8713 237.914 91.3148C237.914 91.6818 238.059 91.98 238.35 92.2094C238.655 92.4388 239.023 92.63 239.451 92.7829C239.894 92.9206 240.33 93.0888 240.758 93.2876C241.187 93.4864 241.546 93.8 241.837 94.2282C242.142 94.6564 242.295 95.1993 242.295 95.8569C242.295 96.7439 241.982 97.4627 241.355 98.0133C240.728 98.5638 239.894 98.8391 238.854 98.8391C238.12 98.8391 237.417 98.7168 236.744 98.4721C236.086 98.2274 235.612 97.9827 235.322 97.738L234.886 97.371Z" fill="#214741"/>
</svg>
